<svg width="20" height="20" viewBox="0 0 20 20" fill="none" xmlns="http://www.w3.org/2000/svg">
<path fill-rule="evenodd" clip-rule="evenodd" d="M17.9227 18.3545C18.3356 18.0619 18.5702 17.6165 18.5702 17.125C18.5702 16.6335 18.3356 16.188 17.9227 15.8955C17.626 15.6853 17.3808 15.6785 10 15.6785C2.61921 15.6785 2.37404 15.6853 2.07734 15.8955C1.21232 16.5083 1.21232 17.7416 2.07734 18.3545C2.37404 18.5647 2.61921 18.5714 10 18.5714C17.3808 18.5714 17.626 18.5647 17.9227 18.3545ZM17.9227 11.2295C18.7877 10.6167 18.7877 9.38337 17.9227 8.77051C17.6324 8.56478 17.4129 8.55354 13.6869 8.5532C9.29353 8.55276 9.29238 8.55287 8.92957 9.33895C8.70817 9.81877 8.70817 10.1813 8.92957 10.6611C9.29238 11.4472 9.29353 11.4473 13.6869 11.4468C17.4129 11.4465 17.6324 11.4352 17.9227 11.2295ZM17.9227 4.10456C18.3356 3.81199 18.5702 3.36657 18.5702 2.87506C18.5702 2.38355 18.3356 1.93813 17.9227 1.64556C17.626 1.43538 17.3808 1.42859 10 1.42859C2.6192 1.42859 2.37404 1.43538 2.07733 1.64556C1.21232 2.25842 1.21232 3.49171 2.07733 4.10456C2.37404 4.31475 2.61921 4.32154 10 4.32154C17.3808 4.32154 17.626 4.31475 17.9227 4.10456Z" fill="#858585"/>
</svg>
