<svg width="16" height="11" viewBox="0 0 16 11" fill="none" xmlns="http://www.w3.org/2000/svg">
<path fill-rule="evenodd" clip-rule="evenodd" d="M7.65995 2.28446C9.8829 2.28456 12.0216 3.13863 13.6316 4.67021C13.753 4.78848 13.9476 4.78698 14.067 4.6669L15.2266 3.49655C15.2868 3.43566 15.3209 3.3532 15.3199 3.26733C15.3199 3.18146 15.2848 3.09941 15.2236 3.03912C10.9954 -1.01304 4.32453 -1.01304 0.0963224 3.03912C0.0351312 3.09931 2.15221e-05 3.18136 2.15221e-05 3.26723C-0.000981612 3.3531 0.0331249 3.43566 0.093313 3.49655L1.25294 4.6669C1.37231 4.78718 1.56692 4.78868 1.6883 4.67021C3.29933 3.13853 5.43701 2.28446 7.65995 2.28446ZM7.65995 6.09206C8.88177 6.09196 10.0594 6.54587 10.9643 7.36563C11.0877 7.482 11.2803 7.47949 11.3996 7.36002L12.5572 6.18966C12.6184 6.12827 12.6525 6.04501 12.6515 5.95844C12.6505 5.87197 12.6154 5.78941 12.5532 5.72922C9.79663 3.16481 5.52729 3.16481 2.76967 5.72922C2.70748 5.78941 2.67237 5.87197 2.67137 5.95854C2.67036 6.04511 2.70447 6.12837 2.76566 6.18966L3.92328 7.36002C4.04265 7.47949 4.23626 7.482 4.35864 7.36563C5.26346 6.54648 6.44014 6.09256 7.65995 6.09206ZM9.9802 8.65386C9.9822 8.74063 9.9481 8.82429 9.8859 8.88508L7.88265 10.9071C7.82446 10.9665 7.74421 11 7.65995 11C7.57669 11 7.49644 10.9665 7.43826 10.9071L5.434 8.88508C5.3718 8.82429 5.3377 8.74053 5.3397 8.65376C5.34171 8.56699 5.37983 8.48483 5.44403 8.42665C6.72302 7.34437 8.59788 7.34437 9.87688 8.42665C9.94108 8.48483 9.97919 8.56709 9.9802 8.65386Z" fill="#FCFCFC"/>
</svg>
