<svg width="24" height="24" viewBox="0 0 24 24" fill="none" xmlns="http://www.w3.org/2000/svg">
<path fill-rule="evenodd" clip-rule="evenodd" d="M9.44187 2.07153C9.22143 2.19798 9.26911 2.55197 9.54121 2.80862C9.82888 3.07998 9.84032 3.16073 9.59111 3.16073C9.17367 3.16073 7.78896 3.57207 7.09117 3.90345C6.03323 4.40579 5.26303 4.95845 4.47051 5.78387C3.04114 7.2726 2.18433 9.25576 2.14277 11.1715C2.13149 11.6932 2.1527 11.8104 2.27445 11.8981C2.35423 11.9556 2.47876 12.0026 2.55099 12.0026C2.81204 12.0026 2.91686 11.7403 3.01333 10.846C3.16583 9.43244 3.57548 8.34301 4.39462 7.17283C4.81993 6.56524 5.70519 5.69178 6.31327 5.27981C6.86191 4.90814 7.83132 4.45 8.46841 4.26119C9.09985 4.0741 9.85907 3.94124 9.85907 4.01777C9.85907 4.04593 9.73391 4.18842 9.58094 4.33443C9.16596 4.73044 9.22302 5.19514 9.68655 5.19514C9.82196 5.19514 10.0899 4.99241 10.5845 4.51588C11.5196 3.61487 11.5197 3.59249 10.5893 2.67646C9.89722 1.99501 9.72954 1.90659 9.44187 2.07153ZM15.8191 2.18397C14.4272 2.55862 13.2354 3.50134 12.606 4.72566C12.2728 5.37378 12.1859 5.64616 12.0838 6.36368C11.8064 8.31383 12.8915 10.3649 14.6864 11.2827C15.4992 11.6985 16.1125 11.8461 17.0257 11.8461C18.4612 11.8461 19.5377 11.4057 20.5498 10.4042C21.6258 9.33956 22.0733 8.19536 21.9903 6.72096C21.9331 5.70461 21.7645 5.16917 21.2423 4.34664C20.649 3.41198 19.7336 2.69226 18.6646 2.31989C17.9308 2.06433 16.515 1.99673 15.8191 2.18397ZM18.3329 3.0914C19.313 3.38944 20.2641 4.20384 20.737 5.15007C21.0502 5.77644 21.1391 6.18669 21.1415 7.01689C21.1464 8.77321 20.0415 10.2586 18.2977 10.84C17.5625 11.0852 16.4661 11.0842 15.7486 10.8378C14.5042 10.4105 13.5545 9.49136 13.1051 8.27955C12.8514 7.59568 12.8562 6.28105 13.1147 5.6255C13.7079 4.12136 14.9624 3.13264 16.574 2.89891C16.9711 2.84132 17.8138 2.9335 18.3329 3.0914ZM16.7453 4.16456C16.673 4.24327 16.6138 4.39632 16.6138 4.50477C16.6138 4.65986 16.5443 4.73271 16.288 4.84655C15.5727 5.16416 15.2967 5.97237 15.6823 6.62033C15.9299 7.03637 16.3633 7.28668 16.9543 7.35507C17.5223 7.4208 17.7976 7.66297 17.68 7.99364C17.5717 8.29818 17.0604 8.47267 16.7318 8.31719C16.5278 8.22063 16.4404 8.10264 16.2155 7.62079C16.138 7.45475 15.7839 7.43191 15.6304 7.583C15.2666 7.94129 15.6416 8.70592 16.3555 9.06124C16.5549 9.16046 16.6138 9.24003 16.6138 9.41038C16.6138 9.65005 16.8255 9.88995 17.0372 9.88995C17.2453 9.88995 17.4879 9.59966 17.4879 9.35067C17.4879 9.17657 17.5322 9.11351 17.6804 9.07689C18.1931 8.95021 18.6744 8.20029 18.5708 7.68989C18.444 7.06555 17.7473 6.52534 17.0689 6.52534C16.8354 6.52534 16.7051 6.47088 16.5328 6.30116C16.2581 6.03066 16.2888 5.79092 16.6199 5.62237C17.1059 5.37488 17.658 5.58293 17.7527 6.04921C17.8356 6.45726 18.3329 6.55828 18.5245 6.20594C18.7287 5.83019 18.2748 5.02762 17.733 4.80665C17.5637 4.73764 17.4898 4.64264 17.4524 4.4464C17.3756 4.04351 16.9957 3.8921 16.7453 4.16456ZM6.14972 12.0053C4.73585 12.255 3.43951 13.1375 2.68759 14.362C1.28628 16.6438 2.10121 19.7483 4.45668 21.1013C5.2972 21.5842 5.93294 21.7443 6.99827 21.7415C7.78443 21.7396 7.99852 21.7094 8.53023 21.5264C9.83301 21.0779 10.886 20.1682 11.4472 19.0065C11.8457 18.1817 11.9591 17.6757 11.9473 16.7757C11.9297 15.4419 11.4397 14.3231 10.4501 13.3582C9.83889 12.7622 8.95935 12.2733 8.1627 12.0867C7.61898 11.9594 6.63471 11.9196 6.14972 12.0053ZM20.9585 12.1004C20.8553 12.1748 20.8048 12.3953 20.7475 13.0198C20.6339 14.2614 20.321 15.257 19.7284 16.2632C18.5337 18.2912 16.5799 19.5883 14.0725 20.0179L13.7961 20.0652L14.1321 19.7282C14.4867 19.3724 14.5494 19.1361 14.3433 18.933C14.0899 18.6836 13.8849 18.7868 13.1318 19.5429C12.7304 19.9459 12.402 20.3378 12.402 20.4137C12.402 20.5946 13.7331 21.9321 13.9719 21.9911C14.1991 22.0472 14.4681 21.8299 14.4681 21.5903C14.4681 21.4975 14.3609 21.3203 14.2297 21.1966C13.9421 20.9252 13.9306 20.8445 14.1798 20.8445C14.2835 20.8445 14.711 20.7589 15.1299 20.6543C18.3818 19.842 20.9249 17.143 21.5035 13.8898C21.6604 13.0081 21.6569 12.2848 21.4953 12.1255C21.3448 11.9774 21.1424 11.9679 20.9585 12.1004ZM7.94448 12.9056C10.0099 13.3849 11.4144 15.4515 11.0666 17.4994C10.8612 18.7089 9.95054 19.9569 8.89379 20.4774C7.26242 21.281 5.3452 20.9927 4.06849 19.7519C3.27573 18.9814 2.866 17.994 2.866 16.8539C2.866 15.6611 3.2677 14.7384 4.13961 13.9285C5.20463 12.9393 6.54142 12.5799 7.94448 12.9056ZM7.22054 14.5685C6.68191 14.7611 6.1858 15.1349 5.91911 15.549C5.68905 15.9062 5.68325 15.9092 5.24245 15.9121C4.91529 15.9142 4.76311 15.9527 4.66632 16.0581C4.35616 16.3955 4.61601 16.7757 5.15695 16.7757C5.33924 16.7757 5.4884 16.8109 5.4884 16.8539C5.4884 16.8969 5.35331 16.9322 5.18826 16.9322C4.81913 16.9322 4.5348 17.1161 4.5348 17.3548C4.5348 17.6481 4.77384 17.7929 5.25803 17.7929C5.67332 17.7929 5.69684 17.8042 5.84481 18.0747C6.20988 18.7422 7.21323 19.3107 7.94329 19.2638C8.23771 19.2448 8.32409 19.2039 8.40388 19.0455C8.55455 18.7466 8.38171 18.5571 7.86374 18.4535C7.36954 18.3546 7.02219 18.1915 6.80699 17.9573L6.65577 17.7929H7.1723C7.73191 17.7929 7.95187 17.6654 7.95187 17.3412C7.95187 17.0549 7.66062 16.9322 6.98055 16.9322C6.62152 16.9322 6.36254 16.8994 6.36254 16.8539C6.36254 16.808 6.63654 16.7757 7.02569 16.7757C7.73668 16.7757 7.95187 16.6725 7.95187 16.3317C7.95187 16.0451 7.70409 15.915 7.15848 15.915C6.66292 15.915 6.65783 15.9128 6.79778 15.7604C7.00288 15.5373 7.56312 15.289 7.86136 15.289C8.17764 15.289 8.53166 14.9773 8.45649 14.7652C8.32934 14.406 7.87622 14.3339 7.22054 14.5685Z" fill="white"/>
</svg>
