<svg width="24" height="24" viewBox="0 0 24 24" fill="none" xmlns="http://www.w3.org/2000/svg">
<path fill-rule="evenodd" clip-rule="evenodd" d="M10.9833 2.02376C10.8755 2.04217 10.5401 2.09663 10.2381 2.14474C8.89136 2.35919 7.1902 3.08873 6.0509 3.9402C4.03642 5.44567 2.68836 7.56144 2.14644 10.0683C1.95119 10.9715 1.95119 13.0465 2.14644 13.9496C3.02263 18.0025 6.00234 20.9786 10.0602 21.8537C10.9644 22.0488 13.0419 22.0488 13.9462 21.8537C17.0001 21.1951 19.5228 19.3004 20.9053 16.6271C21.7042 15.082 22 13.8345 22 12.009C22 10.1796 21.7045 8.93653 20.8998 7.38044C19.5269 4.72537 16.9807 2.81293 13.9644 2.1713C13.404 2.05205 11.3989 1.95285 10.9833 2.02376ZM13.1546 2.84686C15.2774 3.13567 17.0237 3.99732 18.5242 5.4959C22.1694 9.1368 22.1694 14.8812 18.5242 18.5221C14.8788 22.1629 9.12748 22.1629 5.48215 18.5221C2.77074 15.814 2.00469 11.8426 3.51756 8.33776C4.40858 6.27347 6.25949 4.4241 8.32449 3.53495C9.84843 2.87875 11.5781 2.63233 13.1546 2.84686ZM11.0618 4.8527C7.59633 5.39717 5.0681 8.07285 4.81471 11.4639C4.77211 12.0341 4.78458 12.1532 4.89857 12.267C4.97223 12.3406 5.09508 12.4008 5.17157 12.4008C5.42668 12.4008 5.54765 12.1494 5.59872 11.5127C5.85007 8.38031 8.37007 5.86337 11.5063 5.61233C12.1437 5.56132 12.3954 5.4405 12.3954 5.1857C12.3954 4.84517 11.8988 4.72114 11.0618 4.8527ZM13.1171 5.1296C12.968 5.27854 13.0028 5.6461 13.1747 5.73801C13.4143 5.86604 13.5585 5.8343 13.697 5.62322C13.816 5.44175 13.816 5.41292 13.697 5.23145C13.5593 5.02155 13.2753 4.97164 13.1171 5.1296ZM11.6921 6.98923C11.6475 7.07259 11.6109 7.36775 11.6109 7.64512V8.14948L11.2247 8.20064C10.6579 8.27578 10.1331 8.65485 9.86545 9.18272C9.44818 10.0056 9.61928 11.3661 10.2081 11.9062C10.6062 12.2714 11.0443 12.3972 11.9247 12.3992C13.2233 12.4021 13.5717 12.6844 13.572 13.734C13.5721 14.3499 13.4013 14.7164 13.0181 14.9216C12.6609 15.1129 11.3313 15.1255 10.9424 14.9412C10.6807 14.8171 10.4342 14.4324 10.4342 14.1479C10.4342 13.9377 10.2819 13.8111 10.029 13.8111C9.60484 13.8111 9.53722 14.2666 9.86545 14.9132C10.1285 15.4314 10.5981 15.7503 11.2035 15.8219L11.6109 15.8701V16.3736C11.6109 16.9986 11.6993 17.1803 12.0032 17.1803C12.3072 17.1803 12.3954 16.9986 12.3954 16.3729V15.8685L12.7816 15.8173C13.3485 15.7422 13.8732 15.3631 14.1409 14.8353C14.327 14.4683 14.3564 14.3175 14.3549 13.7383C14.3522 12.7055 14.054 12.1598 13.2976 11.8035C12.9638 11.6463 12.7826 11.6186 12.0816 11.6179C10.7834 11.6164 10.4346 11.3341 10.4344 10.284C10.4342 9.66804 10.6051 9.30158 10.9882 9.09637C11.3455 8.90504 12.675 8.8925 13.0639 9.07679C13.3279 9.20192 13.5721 9.58608 13.5721 9.87614C13.5721 10.0911 13.7572 10.2229 14.017 10.1929C14.3088 10.1593 14.4184 9.85985 14.2924 9.43995C14.0785 8.72694 13.5448 8.28385 12.7927 8.19484L12.3954 8.14783V7.64434C12.3954 7.01939 12.3071 6.83769 12.0032 6.83769C11.8562 6.83769 11.7441 6.89238 11.6921 6.98923ZM18.5762 11.7543C18.5034 11.838 18.4377 12.1306 18.4076 12.5053C18.1563 15.6377 15.6363 18.1546 12.5001 18.4057C11.8626 18.4567 11.6109 18.5775 11.6109 18.8323C11.6109 18.9087 11.6712 19.0314 11.7448 19.105C11.8588 19.2188 11.9781 19.2313 12.5489 19.1887C14.4771 19.0449 16.2392 18.146 17.5078 16.6589C18.49 15.5075 19.078 14.0737 19.1916 12.5541C19.2342 11.9839 19.2218 11.8648 19.1078 11.751C18.9359 11.5792 18.7274 11.5806 18.5762 11.7543ZM10.272 18.4438C10.1591 18.6546 10.2777 18.9438 10.501 19.0021C10.8467 19.0923 11.1377 18.6195 10.8892 18.3713C10.7329 18.2152 10.3718 18.2576 10.272 18.4438Z" fill="white"/>
</svg>
