<svg width="29" height="12" viewBox="0 0 29 12" fill="none" xmlns="http://www.w3.org/2000/svg">
<path fill-rule="evenodd" clip-rule="evenodd" d="M3.93513 11.2836C6.67035 11.2836 8.29509 9.14466 8.29509 5.52253C8.29509 1.96756 6.56594 0 3.99476 0C1.65456 0 0 1.57255 0 3.77863C0 5.84307 1.49053 7.34855 3.54011 7.34855C4.79965 7.34855 5.82068 6.76722 6.32753 5.74619H6.45422C6.43183 8.23536 5.53006 9.67379 3.95752 9.67379C3.03336 9.67379 2.29553 9.17447 2.06444 8.36958H0.149073C0.462077 10.1284 1.96756 11.2836 3.93513 11.2836ZM4.00219 5.82811C2.75007 5.82811 1.88555 4.96358 1.88555 3.719C1.88555 2.51909 2.79485 1.60236 4.00962 1.60236C5.22449 1.60236 6.13368 2.53394 6.13368 3.75624C6.13368 4.95616 5.24677 5.82811 4.00219 5.82811ZM12.5584 8.36215C12.5584 9.03283 12.0739 9.53968 11.3659 9.53968C10.6653 9.53968 10.1734 9.03283 10.1734 8.36215C10.1734 7.68394 10.6653 7.18452 11.3659 7.18452C12.0739 7.18452 12.5584 7.68394 12.5584 8.36215ZM11.3659 4.09906C12.0739 4.09906 12.5584 3.59974 12.5584 2.92896C12.5584 2.25075 12.0739 1.75143 11.3659 1.75143C10.6653 1.75143 10.1734 2.25075 10.1734 2.92896C10.1734 3.59974 10.6653 4.09906 11.3659 4.09906ZM21.5245 11.0228H19.6836V8.9732H14.4294V7.37084C15.823 4.9412 17.3509 2.48927 18.8116 0.268332H21.5245V7.34855H22.9778V8.9732H21.5245V11.0228ZM16.2106 7.28892C17.2615 5.47786 18.5061 3.50287 19.6091 1.83335H19.7134V7.39323H16.2106V7.28892ZM29 11.0228H27.0772V2.20598H26.9504L24.2749 4.0842V2.2358L27.0846 0.268332H29V11.0228Z" fill="#FCFCFC"/>
</svg>
