<svg width="17" height="11" viewBox="0 0 17 11" fill="none" xmlns="http://www.w3.org/2000/svg">
<path fill-rule="evenodd" clip-rule="evenodd" d="M16 0H15C14.447 0 14 0.4477 14 1V9.6667C14 10.219 14.447 10.6667 15 10.6667H16C16.552 10.6667 17 10.219 17 9.6667V1C17 0.4477 16.552 0 16 0ZM10.333 2.3333H11.333C11.885 2.3333 12.333 2.7811 12.333 3.3333V9.6667C12.333 10.219 11.885 10.6667 11.333 10.6667H10.333C9.781 10.6667 9.333 10.219 9.333 9.6667V3.3333C9.333 2.7811 9.781 2.3333 10.333 2.3333ZM6.666 4.6667H5.666C5.114 4.6667 4.666 5.1144 4.666 5.6667V9.6667C4.666 10.219 5.114 10.6667 5.666 10.6667H6.666C7.218 10.6667 7.666 10.219 7.666 9.6667V5.6667C7.666 5.1144 7.218 4.6667 6.666 4.6667ZM2 6.6667H1C0.447 6.6667 0 7.1144 0 7.6667V9.6667C0 10.219 0.447 10.6667 1 10.6667H2C2.552 10.6667 3 10.219 3 9.6667V7.6667C3 7.1144 2.552 6.6667 2 6.6667Z" fill="#FCFCFC"/>
</svg>
