<svg width="24" height="24" viewBox="0 0 24 24" fill="none" xmlns="http://www.w3.org/2000/svg">
<path fill-rule="evenodd" clip-rule="evenodd" d="M3.10036 2.11477C2.92696 2.17414 2.66206 2.33727 2.51167 2.47727C1.9665 2.98484 1.98447 2.74742 2.00993 9.10938L2.03287 14.8516L2.25547 15.1641C2.37788 15.3359 2.61301 15.5645 2.77804 15.6719L3.07807 15.8672L7.00847 15.8889L10.9388 15.9105L10.9407 18.1155C10.9418 19.3281 10.9751 20.4545 11.0147 20.6184C11.1272 21.0841 11.4775 21.5027 11.9399 21.724L12.3534 21.9219H16.4149C19.2229 21.9219 20.5721 21.8944 20.7864 21.8327C21.2113 21.7104 21.6657 21.3323 21.846 20.9509C21.9871 20.6524 21.9965 20.3298 21.9982 15.7102L22 10.7874L20.5353 9.38203L19.0705 7.97656L16.062 7.9543L13.0534 7.93203V6.39414V4.85625L11.5667 3.42812L10.0799 2L6.74771 2.00344C4.12653 2.00609 3.34826 2.02992 3.10036 2.11477ZM15.2783 3.03047C14.735 3.54398 14.4361 3.88531 14.4361 3.99219C14.4361 4.18055 16.0449 5.75 16.238 5.75C16.4051 5.75 16.5507 5.58922 16.5507 5.40461C16.5507 5.31719 16.3431 5.04516 16.0856 4.79523L15.6205 4.34375L17.4072 4.34406C19.9656 4.34445 19.906 4.29531 19.9667 6.45312L20.0074 7.89844L20.2689 7.92273C20.6199 7.95531 20.6335 7.88328 20.6023 6.16055L20.5767 4.74727L20.3291 4.40875C20.1929 4.22266 19.9184 3.98242 19.7191 3.875C19.3694 3.68648 19.2919 3.67836 17.5033 3.64062L15.6499 3.60156L16.1003 3.17453C16.5485 2.74961 16.6467 2.51406 16.4531 2.32813C16.3994 2.27656 16.3027 2.23438 16.238 2.23438C16.1733 2.23438 15.7415 2.59258 15.2783 3.03047ZM9.55629 3.58203C9.55637 4.55195 9.65771 4.86781 10.0597 5.15078C10.2414 5.27875 10.4518 5.31125 11.3 5.34266L12.3214 5.38047V6.68617V7.99187L11.9892 8.13578C11.5579 8.32266 11.1416 8.79524 11.0286 9.22664C10.9712 9.44547 10.9388 10.6008 10.9388 12.4252V15.2812H7.2301C3.17778 15.2812 3.15095 15.2784 2.83066 14.8253C2.6928 14.6303 2.68198 14.2728 2.6588 9.14844C2.64197 5.42141 2.66189 3.5882 2.72127 3.3925C2.76925 3.23453 2.92045 3.01477 3.05725 2.90422L3.30597 2.70312H6.43109H9.55612L9.55629 3.58203ZM11.1769 4.64C10.7602 4.65438 10.4742 4.62922 10.4022 4.57187C10.3205 4.50664 10.2881 4.29016 10.2881 3.80836V3.13594L11.0628 3.87656L11.8375 4.61719L11.1769 4.64ZM4.15329 4.77898C3.99623 4.92992 3.99477 4.97656 4.14084 5.16867C4.24771 5.30922 4.38338 5.32203 5.99474 5.34398C7.88092 5.36977 8.17347 5.32695 8.17347 5.02539C8.17347 4.6718 8.0875 4.65625 6.12967 4.65625C4.55759 4.65625 4.26203 4.67461 4.15329 4.77898ZM4.18818 6.76562C3.99209 6.95398 3.9859 7.02891 4.15329 7.18977C4.2652 7.29719 4.68333 7.3125 7.51232 7.3125C9.91708 7.3125 10.7685 7.28852 10.8412 7.21875C11.0157 7.05109 10.9569 6.76836 10.7302 6.68555C10.6079 6.64094 9.24405 6.60938 7.43619 6.60938C4.45926 6.60938 4.34515 6.61484 4.18818 6.76562ZM4.15329 8.76336C4.00209 8.90867 4.00079 8.91906 4.10969 9.11453C4.19054 9.25961 4.31058 9.26562 7.1434 9.26562C10.1294 9.26562 10.2881 9.25133 10.2881 8.98211C10.2881 8.92938 10.2306 8.83094 10.1603 8.76336C10.0489 8.65641 9.66267 8.64062 7.15682 8.64062C4.65096 8.64062 4.26471 8.65641 4.15329 8.76336ZM18.5853 9.59766C18.5866 10.6656 18.6434 10.8459 19.0649 11.1187C19.3145 11.2803 19.4336 11.2969 20.3447 11.2969H21.3493V15.8306C21.3493 20.7497 21.3529 20.7078 20.9009 21.0494C20.6775 21.2182 20.6631 21.2188 16.5194 21.216C12.0242 21.213 12.1303 21.2227 11.829 20.7838C11.6774 20.5627 11.6718 20.3598 11.6725 14.9688C11.673 10.6565 11.6963 9.33883 11.7748 9.18984C11.8308 9.08375 12.0003 8.91672 12.1516 8.81875C12.426 8.64109 12.4355 8.64062 15.5054 8.64062H18.584L18.5853 9.59766ZM20.0887 9.89062L20.8173 10.5938H20.1102C19.4943 10.5938 19.3922 10.5742 19.3189 10.4427C19.2218 10.2685 19.2034 9.1875 19.2974 9.1875C19.3319 9.1875 19.688 9.50391 20.0887 9.89062ZM4.18818 10.75C3.99209 10.9384 3.9859 11.0133 4.15329 11.1741C4.26471 11.2811 4.65096 11.2969 7.15682 11.2969C9.66267 11.2969 10.0489 11.2811 10.1603 11.1741C10.337 11.0044 10.3202 10.8586 10.1073 10.7154C9.95229 10.611 9.53034 10.5938 7.13868 10.5938C4.45926 10.5938 4.3445 10.5998 4.18818 10.75ZM13.2364 10.6743C13.0346 10.7522 12.9872 11.0458 13.151 11.2031C13.2212 11.2705 13.7678 11.2969 15.0972 11.2969C16.6693 11.2969 16.9649 11.2785 17.0736 11.1741C17.2503 11.0044 17.2334 10.8586 17.0206 10.7154C16.8703 10.6142 16.5518 10.5946 15.1296 10.5987C14.189 10.6014 13.3371 10.6355 13.2364 10.6743ZM4.15329 12.7477C4.00209 12.893 4.00079 12.9034 4.10969 13.0989C4.19054 13.244 4.31058 13.25 7.1434 13.25C10.1294 13.25 10.2881 13.2357 10.2881 12.9665C10.2881 12.9137 10.2306 12.8153 10.1603 12.7477C10.0489 12.6408 9.66267 12.625 7.15682 12.625C4.65096 12.625 4.26471 12.6408 4.15329 12.7477ZM13.1357 12.7412C13.0781 12.8078 13.0572 12.9411 13.0865 13.0537L13.1378 13.25H16.4681C19.6773 13.25 19.8013 13.2445 19.8825 13.0989C19.9914 12.9034 19.9901 12.893 19.8389 12.7477C19.727 12.6402 19.3083 12.625 16.4735 12.625C13.7075 12.625 13.2214 12.642 13.1357 12.7412ZM13.2364 14.6587C13.0346 14.7366 12.9872 15.0302 13.151 15.1875C13.2237 15.2573 14.0751 15.2812 16.4799 15.2812C19.3089 15.2812 19.727 15.2659 19.8389 15.1585C20.0063 14.9977 20.0001 14.9227 19.804 14.7344C19.6468 14.5834 19.5365 14.5783 16.5304 14.583C14.8194 14.5858 13.3371 14.6198 13.2364 14.6587ZM3.47245 16.7031C3.40446 16.7684 3.37542 17.1777 3.37664 18.0508C3.37868 19.4823 3.4592 19.7666 3.97891 20.178C4.44747 20.5491 4.73311 20.5938 6.63507 20.5938H8.37168L7.90662 21.0452C7.64912 21.2952 7.44148 21.5672 7.44148 21.6546C7.44148 21.8433 7.58796 22 7.76421 22C7.95672 22 9.55612 20.4257 9.55612 20.2362C9.55612 20.137 9.23738 19.7752 8.71393 19.2805C8.25074 18.8426 7.8457 18.4844 7.8139 18.4844C7.7821 18.4844 7.68531 18.5208 7.59878 18.5652C7.32517 18.7059 7.41545 18.9624 7.90662 19.4391L8.37168 19.8906H6.53495C4.77385 19.8906 4.68886 19.8837 4.47398 19.7213C4.09709 19.4365 4.02551 19.1485 4.02551 17.9166C4.02551 16.7741 3.98452 16.6094 3.70018 16.6094C3.62861 16.6094 3.52613 16.6516 3.47245 16.7031ZM13.1357 16.7255C13.0781 16.7922 13.0572 16.9255 13.0865 17.038L13.1378 17.2344H16.4681C19.6773 17.2344 19.8013 17.2289 19.8825 17.0833C19.9914 16.8878 19.9901 16.8774 19.8389 16.7321C19.727 16.6246 19.3083 16.6094 16.4735 16.6094C13.7075 16.6094 13.2214 16.6263 13.1357 16.7255ZM13.2364 18.643C13.0346 18.7209 12.9872 19.0145 13.151 19.1719C13.2909 19.3062 18.9972 19.3062 19.1371 19.1719C19.3116 19.0042 19.2528 18.7215 19.0261 18.6387C18.762 18.5423 13.4873 18.5463 13.2364 18.643ZM20.0248 18.689C19.9928 18.7197 19.9667 18.9346 19.9667 19.1666C19.9667 19.7812 19.881 19.8906 19.3998 19.8906C18.8489 19.8906 18.584 19.9991 18.584 20.2246C18.584 20.5155 18.7384 20.5938 19.312 20.5934C20.2776 20.5929 20.6415 20.2117 20.6005 19.2434L20.5767 18.6797L20.3298 18.6565C20.1939 18.6437 20.0567 18.6584 20.0248 18.689Z" fill="white"/>
</svg>
